<svg xmlns="http://www.w3.org/2000/svg" viewBox="0 0 496.854 496.854"><path fill="#ccc" d="M238.774 192.346c5.338 5.339 14.004 5.339 19.338 0l42.766-42.762a13.654 13.654 0 0 0 2.971-14.91 13.677 13.677 0 0 0-12.641-8.445h-26.184V20.244c0-9.176-7.434-16.613-16.615-16.613-9.182 0-16.609 7.438-16.609 16.613v105.985h-26.139a13.692 13.692 0 0 0-12.635 8.445 13.703 13.703 0 0 0 2.967 14.91l42.781 42.762zM131.473 231.064c7.563 0 13.678-6.125 13.678-13.675l.016-60.465a13.689 13.689 0 0 0-8.453-12.639c-5.109-2.115-10.98-.94-14.91 2.972l-18.506 18.508-74.936-74.952c-6.488-6.489-17.006-6.489-23.494 0-6.49 6.489-6.49 17.004 0 23.492l74.951 74.952-18.479 18.478a13.647 13.647 0 0 0-2.949 14.9 13.655 13.655 0 0 0 12.637 8.445l60.445-.016zM491.989 90.79c-6.49-6.49-17.006-6.49-23.496 0l-74.947 74.951-18.492-18.494a13.649 13.649 0 0 0-14.896-2.961 13.687 13.687 0 0 0-8.451 12.632l.014 60.488c0 7.551 6.119 13.675 13.68 13.675h60.492a13.673 13.673 0 0 0 12.637-8.445c2.129-5.11.945-10.992-2.967-14.907l-18.508-18.505 74.936-74.942c6.484-6.489 6.484-17.003-.002-23.492zM358.272 317.209c-.713 0-1.375.089-2.09.106-10.123-53.699-57.172-94.321-113.805-94.321-64.016 0-115.93 51.89-115.93 115.915 0 9.767 1.346 19.184 3.629 28.244-1.23-.074-2.383-.364-3.629-.364-34.9 0-63.189 28.291-63.189 63.229 0 33.477 25.336 61.025 58.236 63.206h236.777c48.605 0 88.014-39.405 88.014-88.013.001-48.602-39.408-88.002-88.013-88.002zm-149.561-36.59h66.662c9.184 0 16.615 7.439 16.615 16.61 0 9.176-7.432 16.614-16.615 16.614h-66.662c-9.18 0-16.611-7.438-16.611-16.614 0-9.172 7.432-16.61 16.611-16.61zm0 64.08h126.232c9.182 0 16.615 7.438 16.615 16.614 0 9.172-7.434 16.613-16.615 16.613H208.711c-9.18 0-16.611-7.441-16.611-16.613 0-9.177 7.432-16.614 16.611-16.614zm143.561 97.314H144.616c-9.18 0-16.611-7.439-16.611-16.61 0-9.177 7.432-16.614 16.611-16.614h207.656c9.184 0 16.613 7.438 16.613 16.614 0 9.172-7.429 16.61-16.613 16.61z"/></svg>