<svg width="215" height="173" xmlns="http://www.w3.org/2000/svg"><g fill="none"><path d="M28.258 100.917c8.655 0 15.672-6.709 15.672-14.984 0-8.276-7.017-14.985-15.672-14.985-8.656 0-15.673 6.709-15.673 14.985 0 8.275 7.017 14.984 15.673 14.984zM89.206 133.457c8.655 0 15.672-6.708 15.672-14.984s-7.017-14.985-15.672-14.985c-8.656 0-15.673 6.709-15.673 14.985s7.017 14.984 15.673 14.984zM89.206 68.524c8.655 0 15.672-6.71 15.672-14.985 0-8.276-7.017-14.985-15.672-14.985-8.656 0-15.673 6.71-15.673 14.985 0 8.276 7.017 14.985 15.673 14.985z" fill="#005996"/><path d="M42.218 80.778c.317 0 .627-.083.897-.24l32.926-18.96c.196-.114.367-.262.502-.438a1.595 1.595 0 0 0 .09-1.848 1.694 1.694 0 0 0-.458-.48 1.82 1.82 0 0 0-1.933-.086L41.318 77.687a1.687 1.687 0 0 0-.718.81c-.14.339-.161.711-.06 1.062.103.35.322.659.625.879.303.22.673.339 1.053.339zm33.826 29.654L43.12 91.324a1.793 1.793 0 0 0-1.317-.195 1.779 1.779 0 0 0-.615.275c-.185.129-.34.291-.46.478a1.593 1.593 0 0 0-.203 1.26c.055.212.152.412.287.588.135.176.305.326.5.439l32.925 19.109c.394.218.862.28 1.303.171.441-.107.82-.376 1.057-.748.236-.372.31-.818.207-1.242a1.67 1.67 0 0 0-.76-1.027z" fill="#555"/><path d="M32.713 18.026l-1.728.352c-.215 0-.376-.03-.483-.088-.108-.059-.162-.18-.162-.366 0-.44.45-1.026 1.348-1.758.899-.742 2.139-1.42 3.72-2.036 1.583-.615 3.009-.923 4.278-.923 1.27 0 2.173.22 2.71.66.547.439.82 1.205.82 2.299 0 1.084-.224 2.32-.673 3.706-.45 1.387-1.094 3.105-1.934 5.156l2.549-.073c.684 0 1.025.2 1.025.6 0 .284-.16.509-.483.675-.84.43-2.163.751-3.97.966-.683 1.71-1.21 3.13-1.582 4.263-.361 1.133-.542 2.056-.542 2.768l.044.967c0 .303-.166.542-.498.718a2.194 2.194 0 0 1-1.04.264l-5.874.088c-1.084 0-1.743-.186-1.978-.557-.107-.185-.16-.469-.16-.85 0-.39.082-.942.248-1.655.166-.722.694-2.134 1.582-4.233.899-2.11 1.714-4.073 2.447-5.889.742-1.816 1.113-3.013 1.113-3.589 0-.586-.064-.976-.19-1.172-.127-.195-.323-.293-.586-.293zm17.666 18.15l-5.434.088c-1.084 0-1.743-.186-1.978-.557-.107-.185-.16-.42-.16-.703 0-.918.356-2.53 1.069-4.834a558.038 558.038 0 0 1 2.314-7.324c.84-2.569 1.328-4.282 1.465-5.142.137-.86.205-1.621.205-2.285 0-.664.146-1.084.44-1.26.302-.185.883-.278 1.743-.278.869 0 1.914-.044 3.134-.132 1.221-.088 2.036-.132 2.447-.132.42 0 .727.117.922.352.206.224.308.512.308.864 0 1.719-.586 4.175-1.758 7.368a941.2 941.2 0 0 0-1.465 4.043c-1.181 3.242-1.772 5.918-1.772 8.028l.059.922c0 .303-.166.542-.498.718a2.194 2.194 0 0 1-1.04.264zm27.997-3.34l2.96-.278c.868 0 1.303.234 1.303.703 0 .459-.283.86-.85 1.2a13.33 13.33 0 0 1-4.453 1.686c-1.582.293-3.125.439-4.629.439-1.494 0-2.563-.03-3.208-.088a10.78 10.78 0 0 1-1.904-.322c-.625-.166-1.138-.39-1.538-.674-.87-.625-1.304-1.587-1.304-2.886 0-2.256 1.362-5.093 4.087-8.51 2.06-2.579 3.809-4.083 5.244-4.512.752-.225 1.626-.337 2.622-.337 1.006 0 1.51.38 1.51 1.142 0 .254-.074.557-.22.909-.557 1.142-1.046 2.495-1.466 4.057-.42 1.553-.63 2.95-.63 4.19 0 2.187.826 3.28 2.476 3.28zM63.508 20.78c-.498 0-.747-.288-.747-.864 0-.635.19-1.504.571-2.607.742-2.1 1.538-3.267 2.388-3.501.234-.088.942-.132 2.124-.132l9.902.234c.489 0 1.91-.146 4.263-.44 2.363-.292 3.604-.439 3.72-.439 1.26 0 1.89.43 1.89 1.29 0 .38-.136.986-.41 1.816-.263.82-.615 1.596-1.055 2.329-.439.732-.844 1.098-1.215 1.098-.225 0-.733-.18-1.524-.541-2.392-1.094-4.321-1.641-5.786-1.641-1.465 0-3.159.141-5.083.425-1.924.283-3.354.62-4.292 1.01-.937.381-1.758.733-2.46 1.055-1.31.605-2.071.908-2.286.908zm43.788 12.056l2.959-.278c.869 0 1.303.234 1.303.703 0 .459-.283.86-.85 1.2a13.329 13.329 0 0 1-4.452 1.686c-1.582.293-3.125.439-4.63.439-1.493 0-2.563-.03-3.207-.088a10.781 10.781 0 0 1-1.905-.322c-.625-.166-1.137-.39-1.538-.674-.869-.625-1.303-1.587-1.303-2.886 0-2.256 1.362-5.093 4.087-8.51 2.06-2.579 3.808-4.083 5.244-4.512.752-.225 1.626-.337 2.622-.337 1.006 0 1.509.38 1.509 1.142 0 .254-.074.557-.22.909-.557 1.142-1.045 2.495-1.465 4.057-.42 1.553-.63 2.95-.63 4.19 0 2.187.825 3.28 2.476 3.28zM92.428 20.78c-.498 0-.748-.288-.748-.864 0-.635.191-1.504.572-2.607.742-2.1 1.538-3.267 2.387-3.501.235-.088.943-.132 2.124-.132l9.903.234c.488 0 1.91-.146 4.263-.44 2.363-.292 3.603-.439 3.72-.439 1.26 0 1.89.43 1.89 1.29 0 .38-.137.986-.41 1.816-.264.82-.616 1.596-1.055 2.329-.44.732-.845 1.098-1.216 1.098-.224 0-.732-.18-1.523-.541-2.393-1.094-4.322-1.641-5.786-1.641-1.465 0-3.16.141-5.083.425-1.924.283-3.355.62-4.292 1.01-.938.381-1.758.733-2.461 1.055-1.309.605-2.07.908-2.285.908zm42.351-.879c-.595.957-1.572 3.599-2.929 7.925.322.02.8.03 1.435.03 1.953 0 3.6-.67 4.937-2.007 1.347-1.338 2.021-3.076 2.021-5.215 0-3.125-1.88-4.688-5.639-4.688-1.485 0-2.92.108-4.307.323-1.377.214-2.466.449-3.267.703l-2.212.703c-.673.215-1.118.322-1.333.322-.488 0-.732-.176-.732-.527 0-.352.332-.708.996-1.07.674-.37 1.44-.727 2.3-1.069.86-.351 1.924-.718 3.193-1.099 2.881-.878 6.001-1.318 9.361-1.318 4.433 0 7.451.986 9.052 2.959.87 1.065 1.304 2.349 1.304 3.853 0 2.851-1.186 5.205-3.56 7.06-2.02 1.582-4.648 2.588-7.88 3.018-.948.127-2.032.19-3.252.19-1.21 0-2.217-.083-3.018-.249a135.74 135.74 0 0 1-.967 3.018c-.224.693-.478 1.25-.76 1.67-.285.42-.587.752-.91.996-.312.244-.713.43-1.2.556-.772.205-1.803.308-3.092.308-1.279 0-2.494-.142-3.647-.425-1.152-.283-2.065-.63-2.739-1.04-.684-.41-1.025-.81-1.025-1.201 0-.225.097-.405.293-.542.195-.137.42-.205.673-.205.899 0 1.563-.142 1.993-.425.44-.293.859-.83 1.26-1.611.41-.782.815-1.69 1.215-2.725.41-1.045.791-2.012 1.142-2.9.352-.899.752-1.812 1.202-2.74.986-2.03 2.153-3.364 3.501-3.998.654-.313 1.508-.552 2.563-.718 1.055-.176 1.88-.264 2.476-.264.605 0 .996.01 1.171.03.186.01.372.038.557.087.371.098.557.303.557.615 0 .215-.044.415-.132.601-.078.176-.278.532-.6 1.07z" fill="#005996"/><g><path d="M10.34 143.51l6.65-.161c.254 0 .444.078.57.234.128.146.191.317.191.513 0 .185-.034.512-.102.981a7.68 7.68 0 0 0-.103 1.01c1.797-2.03 4.195-3.046 7.193-3.046 1.826 0 3.261.469 4.306 1.406 1.055.928 1.582 2.246 1.582 3.955 0 3.32-1.303 6.035-3.91 8.145 3.027-.215 5.35-.777 6.972-1.685.537-.302.932-.454 1.186-.454.332 0 .498.18.498.542 0 .254-.18.513-.542.777-1.66 1.162-3.798 2.021-6.416 2.578-2.607.556-5.415.835-8.422.835a10.698 10.698 0 0 1-3.94-.44c-1.036-.312-1.895-.752-2.579-1.318-.674 2.06-1.01 4.438-1.01 7.134l.014.424c0 .489-.474.733-1.421.733l-6.811.176c-.235 0-.42-.074-.557-.22a.645.645 0 0 1-.205-.469c0-1.67.913-4.907 2.739-9.712 1.826-4.814 2.74-8.037 2.74-9.668l-.06-1.216c0-.36.089-.625.264-.79.186-.176.577-.264 1.172-.264zm10.077 3.252c-1.836 0-3.369 1.406-4.6 4.218-.566 1.29-.849 2.334-.849 3.135 0 .801.132 1.353.396 1.656.273.302.8.454 1.582.454.79 0 1.64-.362 2.548-1.084a8.184 8.184 0 0 0 2.212-2.754c.557-1.104.835-2.095.835-2.974 0-.889-.195-1.553-.585-1.992-.391-.44-.904-.66-1.539-.66zm132.905-8.833c0 1.045-.581 1.958-1.743 2.739-1.152.771-2.373 1.157-3.662 1.157-1.279 0-2.276-.259-2.988-.776-.713-.528-1.07-1.167-1.07-1.92 0-.751.274-1.435.821-2.05.546-.615 1.254-1.099 2.124-1.45a7.616 7.616 0 0 1 2.856-.527c1.025 0 1.89.273 2.593.82.713.537 1.069 1.206 1.069 2.007zm-4.116 18.178c.664 0 1.562-.156 2.695-.468 1.143-.323 1.973-.606 2.49-.85.518-.254.879-.38 1.084-.38.411 0 .616.204.616.614 0 .186-.152.396-.454.63-.997.742-2.789 1.514-5.376 2.315-2.588.8-4.898 1.2-6.929 1.2-1.26 0-2.315-.2-3.164-.6-.85-.4-1.275-1.01-1.275-1.83 0-.499.425-1.72 1.275-3.663 1.601-3.682 2.402-6.455 2.402-8.32l-.015-.557c0-.488.474-.732 1.421-.732l7.237-.161c.254 0 .444.078.571.234.127.146.19.313.19.498 0 .674-.307 1.787-.922 3.34a461.863 461.863 0 0 1-1.846 4.556c-.615 1.494-.923 2.563-.923 3.208 0 .644.308.966.923.966zm32.801-1.699c.342 0 .513.161.513.484 0 .312-.234.605-.703.878-.459.264-1.03.552-1.714.865-.684.302-1.626.664-2.827 1.084-2.764.966-5.884 1.45-9.361 1.45-6.601 0-9.902-2.031-9.902-6.094 0-1.982.625-3.74 1.875-5.273 1.26-1.543 2.944-2.72 5.054-3.53 2.109-.82 4.409-1.231 6.899-1.231s4.312.386 5.464 1.157c1.162.772 1.743 1.831 1.743 3.179 0 1.387-.556 2.52-1.67 3.398-1.103.88-2.573 1.534-4.409 1.963-1.846.43-3.96.733-6.343.908.157 1.514 1.241 2.456 3.252 2.828a9.804 9.804 0 0 0 1.641.131c2.285 0 5.581-.688 9.888-2.065.263-.088.464-.132.6-.132zm-15.366-2.373c1.699-.469 3.042-1.186 4.028-2.153.987-.967 1.48-2.134 1.48-3.501 0-.362-.117-.65-.352-.864-.234-.215-.591-.323-1.069-.323-.469 0-.962.205-1.48.616-.507.41-.937.947-1.289 1.61-.742 1.378-1.181 2.916-1.318 4.615zm27.587 7.12c-.245.01-.606.014-1.084.014-2.247 0-4.366-.21-6.358-.63-1.982-.42-3.154-.908-3.515-1.465-.118-.176-.176-.395-.176-.659s.312-.684.937-1.26c.625-.586 1.055-.879 1.289-.879.235 0 .474.088.718.264.254.166.532.371.835.615.303.244.64.489 1.011.733.888.586 1.958.879 3.208.879.498 0 .898-.127 1.201-.381.312-.254.469-.572.469-.952 0-.391-.132-.728-.396-1.011-.254-.283-.591-.528-1.011-.733-.41-.214-.864-.424-1.362-.63a40.744 40.744 0 0 1-1.509-.688 11.671 11.671 0 0 1-1.377-.82c-.927-.655-1.391-1.465-1.391-2.432 0-.977.293-1.821.879-2.534a6.551 6.551 0 0 1 2.241-1.714 16.8 16.8 0 0 1 3.047-1.084c1.992-.498 3.872-.747 5.639-.747 1.778 0 3.428.093 4.952.278 1.533.176 2.587.44 3.164.791.156.088.234.323.234.703 0 .372-.132.909-.395 1.612a9.119 9.119 0 0 1-1.011 1.933c-.401.586-.762.88-1.084.88a.4.4 0 0 1-.322-.162c-.928-1.113-1.832-1.968-2.71-2.563-.87-.606-1.817-.909-2.842-.909-.781 0-1.343.162-1.685.484-.332.312-.498.64-.498.981 0 .342.186.67.557.982a6.38 6.38 0 0 0 1.406.85c.566.253 1.177.551 1.831.893.664.332 1.275.674 1.831 1.025a4.601 4.601 0 0 1 1.406 1.304c.381.518.572 1.172.572 1.963 0 .79-.288 1.562-.865 2.314 2.422-.488 4.317-1.089 5.684-1.801.234-.127.435-.19.601-.19.371 0 .556.185.556.556 0 .312-.19.6-.571.864-.381.254-1.011.566-1.89.938-.879.36-1.923.727-3.134 1.098-2.823.86-5.85 1.29-9.082 1.29z" fill="#555"/><path d="M50.992 149.442l-.718.015a125.631 125.631 0 0 0-1.582 4.878c-.41 1.367-.742 2.26-.996 2.68a4.03 4.03 0 0 1-.805.997c-.284.244-.65.43-1.099.556-.742.205-1.748.308-3.018.308-1.27 0-2.49-.142-3.662-.425-1.162-.283-2.09-.63-2.783-1.04-.693-.42-1.04-.825-1.04-1.216 0-.224.098-.4.293-.527a1.08 1.08 0 0 1 .66-.205c.898 0 1.557-.142 1.977-.425.43-.293.835-.825 1.216-1.597.38-.771.756-1.665 1.127-2.68.381-1.016.733-1.958 1.055-2.827.332-.87.713-1.758 1.143-2.666.918-1.954 2.055-3.257 3.413-3.912.654-.312 1.523-.551 2.607-.717 1.084-.176 1.929-.264 2.535-.264.605 0 1 .01 1.186.03.186.01.371.038.557.087.38.098.57.313.57.645 0 .205-.038.395-.116.571-.078.176-.318.6-.718 1.274-.39.664-1.064 2.344-2.021 5.04 5.185-.606 7.778-2.5 7.778-5.684 0-1.074-.337-1.88-1.011-2.417-.693-.537-1.396-.864-2.11-.982a21.658 21.658 0 0 0-3.515-.263c-1.27 0-2.598.122-3.984.366-1.387.234-2.466.498-3.238.791a81.09 81.09 0 0 0-2.05.791c-.596.234-.977.352-1.143.352-.518 0-.776-.171-.776-.513 0-.43.278-.82.835-1.172 1.933-1.24 4.145-2.183 6.635-2.827 2.49-.645 5.61-.967 9.36-.967 1.924 0 3.531.2 4.82.6 1.29.391 2.275.806 2.959 1.246.693.43 1.26 1 1.7 1.714.439.712.658 1.494.658 2.343 0 .85-.16 1.602-.483 2.256a5.122 5.122 0 0 1-1.333 1.67c-.557.46-1.265.874-2.124 1.245-1.484.635-3.491 1.153-6.02 1.553 1.933 0 3.461.332 4.584.996 1.123.664 1.685 1.602 1.685 2.813l-.264 2.607c0 .703.357 1.103 1.07 1.201.302.049.605.088.908.117.713.059 1.07.332 1.07.82 0 .665-.83 1.246-2.491 1.744-1.65.498-3.462.747-5.435.747-3.72 0-5.58-1.089-5.58-3.267 0-.527.16-1.279.483-2.256.322-.976.483-1.63.483-1.962 0-.616-.254-1.143-.762-1.582-.507-.44-1.337-.66-2.49-.66zm37.093-6.782c-1.62 1.319-2.856 3.277-3.706 5.874a13.978 13.978 0 0 0-.673 4.278c0 2.529.825 3.793 2.475 3.793.84 0 1.71-.346 2.608-1.04.898-.693 1.704-1.591 2.417-2.695.722-1.113 1.313-2.431 1.772-3.955.469-1.523.703-3.047.703-4.57 0-2.149-.38-3.677-1.142-4.585-.762-.908-2.041-1.362-3.838-1.362-.996 0-2.07.107-3.223.322-1.152.215-2.129.454-2.93.718-.79.253-1.504.488-2.138.703-.635.215-1.001.322-1.099.322-.361 0-.542-.147-.542-.44 0-.234.24-.537.718-.908.488-.38 1.162-.776 2.021-1.186.86-.42 1.812-.81 2.857-1.172 2.431-.84 4.81-1.26 7.134-1.26 4.463 0 7.617 1.299 9.463 3.897 1.084 1.533 1.626 3.427 1.626 5.683 0 1.71-.298 3.316-.894 4.82a12.235 12.235 0 0 1-2.49 3.925 15.88 15.88 0 0 1-3.75 2.9c-2.9 1.632-6.187 2.447-9.859 2.447-7.187 0-10.78-2.456-10.78-7.368 0-1.377.297-2.695.893-3.955a10.985 10.985 0 0 1 2.343-3.296 17.148 17.148 0 0 1 3.282-2.461c2.46-1.406 4.931-2.11 7.412-2.11.39 0 .669.074.835.22.175.137.263.279.263.425a.914.914 0 0 1-.073.38 1.243 1.243 0 0 1-.249.352c-.127.137-.24.254-.337.352-.244.215-.61.532-1.099.952zm21.757-2.637c-.586 0-.879-.214-.879-.644 0-.361.249-.762.747-1.201.508-.45 1.177-.874 2.007-1.275.83-.4 1.86-.732 3.091-.996 1.23-.273 2.524-.41 3.882-.41 1.357 0 2.446.39 3.266 1.172.83.771 1.553 2.114 2.168 4.028.615 1.905 1.519 4.282 2.71 7.134 1.201 2.852 2.168 4.956 2.901 6.313.449.82 1.215 1.338 2.299 1.553.108.02.269.05.484.088.224.03.381.054.469.073.097.02.219.059.366.118.146.048.249.107.307.175.166.176.249.41.249.703 0 .586-.673 1.119-2.021 1.597-1.338.479-3.018.718-5.039.718-2.149 0-3.726-.264-4.732-.791-1.015-.527-1.806-1.24-2.373-2.139-.322-.527-.644-1.264-.966-2.212-.323-.947-.782-2.217-1.377-3.808-3.213 4.238-5.586 6.914-7.12 8.027-.654.479-1.176.718-1.567.718-.381 0-.752-.288-1.113-.864a8.266 8.266 0 0 1-.835-1.846c-.195-.654-.293-1.148-.293-1.48 0-.771.283-1.279.849-1.523 2.032-.86 3.741-1.67 5.127-2.432a28.238 28.238 0 0 0 4.131-2.798c-.654-1.699-1.523-3.906-2.607-6.62-.225-.587-.518-.982-.879-1.187-.352-.205-.879-.308-1.582-.308l-1.67.117zm17.065 4.673c-.517 0-.776-.278-.776-.835 0-.224.21-.708.63-1.45.42-.752 1.089-1.68 2.007-2.783.918-1.104 1.885-2.036 2.9-2.798 1.016-.771 1.861-1.157 2.534-1.157.684 0 1.211.454 1.582 1.362.371.899.557 2.149.557 3.75 0 .781-.308 1.226-.923 1.333-1.543.274-2.871.576-3.984.908-1.113.332-2.363.826-3.75 1.48a1.85 1.85 0 0 1-.777.19z" fill="#005996"/></g></g></svg>